<svg width="28" height="28" viewBox="0 0 28 28" fill="none" xmlns="http://www.w3.org/2000/svg">
<circle cx="14" cy="14" r="14" fill="#4251E4"/>
<path fill-rule="evenodd" clip-rule="evenodd" d="M10.5023 19.6225L9.99319 20.5055C9.97063 20.5422 9.94504 20.5767 9.91671 20.6089C9.87297 20.651 9.84364 20.712 9.81431 20.7731C9.7497 20.9076 9.68506 21.0421 9.46622 20.9746L8.78685 20.7403L8.26379 20.5147L7.70556 20.3069C7.69019 20.2484 7.64613 20.2489 7.6049 20.2494L7.59391 20.2495L7.24613 20.0772L7.17021 20.0198L7.06359 19.9624L6.50536 19.6317L6.44953 19.6179L6.27872 19.5066L6.0878 19.3849C5.76738 19.1656 5.44769 18.9464 5.12876 18.7275C5.1082 18.7105 5.08948 18.6912 5.07293 18.6701C4.9774 17.604 4.97571 16.5312 5.06791 15.4649L5.07796 15.2226L5.18346 14.5716C5.32032 13.7004 5.54097 12.8454 5.84218 12.0191C5.85082 11.9874 5.85643 11.9549 5.85893 11.9221L5.91475 11.7498L6.17433 11.0402L6.27202 10.868L6.55448 10.2416L6.56509 10.1773C6.61759 10.1689 6.61714 10.1333 6.6167 10.0977C6.61657 10.0875 6.61644 10.0773 6.61756 10.0677C6.7592 9.88392 6.87219 9.67862 6.9525 9.45914L7.05968 9.28289V9.28002L7.58665 8.39532L7.59112 8.38613C7.61657 8.35784 7.63902 8.32731 7.66144 8.29682C7.71772 8.2203 7.77378 8.14407 7.87638 8.10425C8.10531 8.01484 8.32932 7.91217 8.55367 7.80936L8.55367 7.80935C8.63184 7.77353 8.71006 7.73768 8.78853 7.70237H8.79132L9.07043 7.591L9.57284 7.41877L9.79055 7.36136C10.3025 7.24653 10.8149 7.12769 11.3268 7.00828C11.4861 6.97043 11.5242 7.06906 11.5622 7.16748C11.5818 7.21836 11.6014 7.26918 11.6377 7.30107C11.6833 7.35422 11.7209 7.414 11.7494 7.47847L11.8683 7.76553C11.9124 7.98657 12.0397 7.96324 12.167 7.93993C12.2202 7.93019 12.2734 7.92045 12.3205 7.92857L13.3381 7.82121C13.5373 7.82567 13.7365 7.82393 13.9356 7.82219C14.3784 7.81833 14.8211 7.81448 15.2635 7.87863C15.4093 7.89953 15.5562 7.91207 15.7033 7.92461L15.7033 7.92461C15.7904 7.93205 15.8776 7.93948 15.9646 7.94867C16.064 7.959 16.1276 7.92857 16.136 7.8172L16.1918 7.70237L16.2538 7.53761L16.3023 7.46986C16.4402 6.99622 16.6741 6.91929 17.2558 7.12195C17.3915 7.16926 17.5353 7.19166 17.6792 7.21407C17.7449 7.22429 17.8105 7.23452 17.8754 7.24711L18.0937 7.30452L19.237 7.70639L19.5111 7.81777H19.5183L20.0704 8.04741C20.3545 8.24979 20.5238 8.54153 20.6931 8.83322C20.7706 8.96685 20.8482 9.10047 20.9368 9.22548L21.2717 9.84666L21.5815 10.523L21.634 10.632C22.0144 11.4775 22.3271 12.3534 22.569 13.2511C22.6031 13.3767 22.63 13.5046 22.6568 13.6319L22.6568 13.6319C22.6705 13.6966 22.6841 13.7612 22.6986 13.8252C22.7056 13.8727 22.707 13.9212 22.7085 13.9697V13.9697C22.7117 14.0758 22.7148 14.1819 22.7761 14.2776L22.8956 15.1715L23 16.2548V17.8135C22.9639 17.9352 22.9592 18.0687 22.9544 18.2022C22.944 18.4966 22.9335 18.7909 22.5875 18.9572L22.0203 19.3269L21.9989 19.3379L21.9988 19.3379C21.7824 19.4491 21.5627 19.562 21.3806 19.7287L20.0698 20.3936L19.5166 20.6232L19.1739 20.7461L18.9065 20.854C18.8309 20.8605 18.7601 20.8934 18.6892 20.9264L18.6892 20.9264C18.5713 20.9813 18.4533 21.0363 18.3131 20.9688L17.9781 20.4567C17.8811 20.3074 17.7983 20.1482 17.7159 19.9897L17.7159 19.9897C17.656 19.8746 17.5964 19.7599 17.5316 19.6495C17.3874 19.404 17.5067 19.354 17.6612 19.2894L17.6934 19.2758C17.8618 19.2033 18.0293 19.129 18.197 19.0546L18.197 19.0546C18.2751 19.02 18.3532 18.9853 18.4314 18.9508C18.4449 18.9437 18.4584 18.9367 18.472 18.9297C18.4849 18.923 18.4979 18.9163 18.5109 18.9096L18.511 18.9096C18.5756 18.8764 18.6403 18.8432 18.7027 18.8062C18.7217 18.795 18.743 18.7842 18.7644 18.7734C18.8828 18.7134 19.005 18.6514 18.7625 18.5128L18.7117 18.4984C18.6787 18.4158 18.6117 18.3566 18.5336 18.3882C18.3455 18.4642 18.1607 18.5482 17.9757 18.6323C17.9048 18.6646 17.8338 18.6968 17.7627 18.7287L17.0532 18.9675L16.774 19.072C16.7271 19.0786 16.6792 19.0799 16.6313 19.0811C16.5184 19.0839 16.4054 19.0868 16.3051 19.161C15.3112 19.3601 14.2978 19.4371 13.2862 19.3906L12.4823 19.2855L11.2492 19.0748L11.0047 18.9755L9.93904 18.615L9.79781 18.5191C9.56447 18.3716 9.35123 18.3647 9.15919 18.5995C9.10951 18.6598 9.11565 18.6908 9.16589 18.7195C9.5387 18.9396 9.92945 19.126 10.3337 19.2764L10.4454 19.3303L10.6017 19.394L10.5023 19.6225ZM12.5809 14.7239C12.5809 15.7904 11.8387 16.6549 10.9231 16.6549C10.0075 16.6549 9.26521 15.7904 9.26521 14.7239C9.26521 13.6574 10.0075 12.7928 10.9231 12.7928C11.8387 12.7928 12.5809 13.6574 12.5809 14.7239ZM16.6445 16.1239C17.4418 16.1239 18.0882 15.3852 18.0882 14.4741C18.0882 13.5629 17.4418 12.8242 16.6445 12.8242C15.8473 12.8242 15.2009 13.5629 15.2009 14.4741C15.2009 15.3852 15.8473 16.1239 16.6445 16.1239Z" fill="white"/>
</svg>
