<svg width="29" height="29" viewBox="0 0 29 29" fill="none" xmlns="http://www.w3.org/2000/svg">
<path fill-rule="evenodd" clip-rule="evenodd" d="M14.2856 0.285767C6.55064 0.285767 0.285645 6.70923 0.285645 14.6399C0.285645 20.9916 4.29314 26.3564 9.85814 28.2583C10.5581 28.3839 10.8206 27.9533 10.8206 27.5765C10.8206 27.2356 10.8031 26.1052 10.8031 24.9031C7.28564 25.5669 6.37564 24.0239 6.09564 23.2165C5.93814 22.8038 5.25564 21.5299 4.66064 21.1889C4.17064 20.9198 3.47064 20.2559 4.64314 20.238C5.74564 20.22 6.53314 21.2787 6.79564 21.7093C8.05564 23.8803 10.0681 23.2703 10.8731 22.8935C10.9956 21.9605 11.3631 21.3325 11.7656 20.9736C8.65064 20.6148 5.39564 19.3767 5.39564 13.8863C5.39564 12.3253 5.93814 11.0334 6.83064 10.0286C6.69064 9.66977 6.20064 8.19847 6.97064 6.22478C6.97064 6.22478 8.14314 5.84799 10.8206 7.69608C11.9406 7.37311 13.1306 7.21163 14.3206 7.21163C15.5106 7.21163 16.7006 7.37311 17.8206 7.69608C20.4981 5.83004 21.6706 6.22478 21.6706 6.22478C22.4406 8.19847 21.9506 9.66977 21.8106 10.0286C22.7031 11.0334 23.2456 12.3073 23.2456 13.8863C23.2456 19.3947 19.9731 20.6148 16.8581 20.9736C17.3656 21.4222 17.8031 22.2834 17.8031 23.6291C17.8031 25.549 17.7856 27.0921 17.7856 27.5765C17.7856 27.9533 18.0481 28.4019 18.7481 28.2583C21.5274 27.2963 23.9424 25.4649 25.6533 23.0219C27.3642 20.579 28.2848 17.6474 28.2856 14.6399C28.2856 6.70923 22.0206 0.285767 14.2856 0.285767Z" fill="black"/>
</svg>
