<svg width="29" height="29" viewBox="0 0 29 29" fill="none" xmlns="http://www.w3.org/2000/svg">
<path d="M14.2002 0.199951C6.46811 0.199951 0.200195 6.46787 0.200195 14.2C0.200195 21.932 6.46811 28.2 14.2002 28.2C21.9323 28.2 28.2002 21.932 28.2002 14.2C28.2002 6.46787 21.9323 0.199951 14.2002 0.199951ZM10.7731 20.0027H7.93811V10.8793H10.7731V20.0027ZM9.33811 9.75933C8.44269 9.75933 7.86374 9.12495 7.86374 8.34037C7.86374 7.53974 8.46019 6.92433 9.37457 6.92433C10.2889 6.92433 10.8489 7.53974 10.8664 8.34037C10.8664 9.12495 10.2889 9.75933 9.33811 9.75933ZM21.1273 20.0027H18.2923V14.9466C18.2923 13.7697 17.881 12.9706 16.8558 12.9706C16.0727 12.9706 15.6075 13.5116 15.4019 14.0322C15.326 14.2175 15.3071 14.48 15.3071 14.741V20.0012H12.4706V13.7887C12.4706 12.6497 12.4342 11.6975 12.3962 10.8779H14.8594L14.9892 12.1452H15.046C15.4194 11.5502 16.3337 10.6722 17.8635 10.6722C19.7287 10.6722 21.1273 11.922 21.1273 14.6083V20.0027Z" fill="#0A66C2"/>
</svg>
