<svg width="178" height="40" viewBox="0 0 178 40" fill="none" xmlns="http://www.w3.org/2000/svg">
<g clip-path="url(#clip0)">
<path d="M4.38617 7.50285C11.2882 -1.12044 23.8739 -2.51582 32.4972 4.38617C41.1204 11.2882 42.5158 23.8739 35.6138 32.4972C28.7118 41.1204 16.1261 42.5158 7.50285 35.6138C-1.12044 28.7118 -2.51582 16.1261 4.38617 7.50285Z" fill="url(#paint0_linear)"/>
<path d="M9.67782 7.23092C14.7192 0.932211 24.2875 0.213329 31.0491 5.62525C37.8107 11.0372 39.2052 20.5305 34.1638 26.8292C29.1224 33.1279 19.5541 33.8468 12.7925 28.4349C6.03088 23.023 4.63639 13.5296 9.67782 7.23092Z" fill="url(#paint1_linear)"/>
<path d="M14.6834 7.91646C18.3336 3.35589 25.2428 2.8204 30.1154 6.72042C34.9881 10.6204 35.9791 17.4791 32.3288 22.0397C28.6786 26.6002 21.7694 27.1357 16.8968 23.2357C12.0241 19.3357 11.0332 12.477 14.6834 7.91646Z" fill="url(#paint2_linear)"/>
<path d="M20.1405 8.81019C22.3508 6.04866 26.3812 5.6018 29.1427 7.8121C31.9043 10.0224 32.3511 14.0529 30.1408 16.8144C27.9305 19.5759 23.9001 20.0228 21.1386 17.8125C18.377 15.6022 17.9302 11.5717 20.1405 8.81019Z" fill="white"/>
<path fill-rule="evenodd" clip-rule="evenodd" d="M146.938 6.11815C146.922 6.16064 146.902 7.61014 146.894 9.33929L146.879 12.4832L144.633 12.5137L142.387 12.5442V14.1009V15.6576L144.633 15.6881L146.879 15.7187L146.911 19.9919C146.94 23.8118 146.955 24.317 147.053 24.7536C147.113 25.0222 147.228 25.4318 147.309 25.6639C147.389 25.8959 147.541 26.2393 147.646 26.4269C147.751 26.6146 147.955 26.9232 148.1 27.1128C148.245 27.3023 148.49 27.5698 148.645 27.7071C148.8 27.8443 149.081 28.0591 149.269 28.1845C149.456 28.3097 149.817 28.5025 150.071 28.6127C150.325 28.723 150.747 28.8686 151.011 28.9363C151.274 29.004 151.813 29.0912 152.209 29.1301C152.758 29.1842 153.091 29.1839 153.616 29.1289C153.994 29.0893 154.539 28.988 154.828 28.904C155.116 28.8198 155.522 28.6651 155.729 28.5601C155.936 28.4551 156.256 28.2661 156.44 28.1402C156.623 28.0142 156.966 27.7089 157.202 27.4617C157.438 27.2146 157.715 26.8887 157.816 26.7376C157.918 26.5865 158.084 26.2981 158.184 26.0966C158.285 25.8952 158.44 25.5106 158.529 25.242C158.618 24.9734 158.723 24.5682 158.761 24.3417C158.806 24.0813 158.81 23.9105 158.774 23.8771C158.742 23.8482 158.036 23.6817 157.206 23.5071C156.376 23.3324 155.663 23.2025 155.622 23.2183C155.581 23.2341 155.53 23.3938 155.509 23.573C155.488 23.7523 155.412 24.0656 155.341 24.2695C155.269 24.4733 155.112 24.7884 154.991 24.9698C154.869 25.1512 154.634 25.404 154.467 25.5316C154.293 25.664 153.984 25.8188 153.747 25.8924C153.409 25.9967 153.228 26.0154 152.795 25.9905C152.369 25.9661 152.181 25.9224 151.869 25.7756C151.653 25.6743 151.366 25.4899 151.229 25.3658C151.092 25.2417 150.899 24.9768 150.8 24.7771C150.701 24.5775 150.59 24.2707 150.555 24.0954C150.511 23.8817 150.494 22.4508 150.505 19.7478L150.521 15.7187L152.742 15.7027L154.963 15.6867L156.373 14.1646C157.148 13.3275 157.781 12.6204 157.779 12.5934C157.777 12.5663 156.143 12.5305 154.148 12.5137L150.521 12.4832L150.491 9.27824L150.46 6.07329L148.714 6.05711C147.349 6.04441 146.96 6.05778 146.938 6.11815ZM57.7834 12.3034C57.5921 12.35 57.3036 12.4555 57.1423 12.5377C56.9809 12.6199 56.7276 12.7889 56.5794 12.9131C56.4312 13.0374 56.2036 13.28 56.0736 13.4521C55.9436 13.6243 55.7853 13.882 55.7217 14.0246C55.6581 14.1673 55.5809 14.2841 55.55 14.2841C55.5189 14.2841 55.4862 13.8947 55.4769 13.4142L55.4601 12.5442H53.73H52V20.6635V28.7827H53.73H55.4601L55.4915 22.8306C55.5131 18.7306 55.5436 16.821 55.5896 16.6937C55.6263 16.592 55.7122 16.3997 55.7805 16.2664C55.8488 16.133 55.9959 15.9361 56.1073 15.8286C56.2187 15.7212 56.4465 15.5711 56.6134 15.4951C56.8533 15.3858 57.0252 15.357 57.4329 15.3577C57.8466 15.3584 58.0059 15.3865 58.2365 15.4992C58.3947 15.5766 58.6104 15.7386 58.7158 15.8593C58.8211 15.98 58.9648 16.2037 59.0351 16.3565C59.1617 16.6317 59.1633 16.6937 59.1933 22.7085L59.2237 28.7827H60.984H62.7444L62.7748 22.8001L62.8051 16.8175L62.9437 16.4728C63.02 16.2832 63.1897 16.0054 63.3209 15.8555C63.4658 15.6899 63.6852 15.5286 63.8803 15.4442C64.0568 15.3678 64.3671 15.292 64.5699 15.2756C64.8153 15.2558 65.0559 15.2802 65.2897 15.3485C65.554 15.4258 65.712 15.5228 65.9291 15.7411C66.1101 15.9232 66.2715 16.1661 66.3628 16.3938L66.508 16.7565L66.5384 22.7696L66.5687 28.7827H68.2988H70.0288L70.0281 22.3728L70.0273 15.9629L69.8628 15.3603C69.7723 15.0288 69.6016 14.561 69.4834 14.3205C69.3653 14.0801 69.1392 13.7263 68.981 13.5344C68.8228 13.3424 68.5496 13.0773 68.374 12.9453C68.1984 12.8132 67.9067 12.6348 67.726 12.5487C67.5451 12.4627 67.2244 12.3513 67.0133 12.3013C66.796 12.2497 66.3373 12.2099 65.9562 12.2094C65.4868 12.2087 65.1441 12.2443 64.8239 12.3266C64.5714 12.3916 64.2187 12.5182 64.0402 12.6081C63.8617 12.698 63.5718 12.882 63.396 13.0171C63.2202 13.1521 62.9497 13.4306 62.795 13.636C62.6402 13.8414 62.4209 14.2094 62.3076 14.4538C62.1943 14.6983 62.0786 14.8841 62.0505 14.8666C62.0224 14.8491 61.9816 14.7395 61.9599 14.6229C61.9382 14.5065 61.8119 14.1932 61.6793 13.9268C61.5011 13.5685 61.335 13.3452 61.0418 13.0694C60.8237 12.8642 60.5103 12.6276 60.3452 12.5435C60.1802 12.4594 59.8887 12.3496 59.6976 12.2996C59.4916 12.2456 59.1015 12.2106 58.7405 12.2136C58.4053 12.2164 57.9746 12.2568 57.7834 12.3034ZM77.8131 12.2714C77.6207 12.3016 77.2307 12.3819 76.9465 12.4498C76.6623 12.5177 76.1974 12.6699 75.9135 12.7882C75.6295 12.9064 75.217 13.1132 74.9968 13.2477C74.7766 13.3823 74.4215 13.6323 74.2076 13.8035C73.9938 13.9746 73.6732 14.2873 73.4951 14.4984C73.317 14.7094 73.0438 15.0879 72.888 15.3393C72.7322 15.5906 72.5107 16.0309 72.3957 16.3177C72.2807 16.6045 72.1691 16.9491 72.1478 17.0836L72.1089 17.3279L72.3739 17.3987C72.5197 17.4376 73.1831 17.6192 73.8482 17.8023C74.5132 17.9853 75.0965 18.127 75.1445 18.1173C75.1933 18.1073 75.3039 17.8845 75.3957 17.6111C75.4858 17.3425 75.6367 16.9991 75.7311 16.848C75.8254 16.6969 75.9948 16.4585 76.1076 16.3182C76.2204 16.1779 76.4968 15.9407 76.7219 15.7911C76.9469 15.6416 77.3272 15.4486 77.567 15.3623C77.8067 15.276 78.2432 15.1733 78.537 15.134C78.8419 15.0931 79.2801 15.0796 79.558 15.1025C79.8257 15.1244 80.2224 15.1859 80.4394 15.2389C80.6564 15.2919 81.0057 15.4165 81.2156 15.5159C81.4279 15.6164 81.7665 15.8558 81.979 16.0556C82.224 16.2862 82.4299 16.5526 82.554 16.7993C82.6604 17.0108 82.7875 17.3761 82.8367 17.6111C82.8909 17.8703 82.9265 18.3807 82.9272 18.9084C82.9281 19.654 82.9148 19.7783 82.834 19.7783C82.7823 19.7783 82.2565 19.6561 81.6655 19.5067C81.0746 19.3573 80.2906 19.1895 79.9234 19.1339C79.5247 19.0735 78.8766 19.0323 78.3148 19.0317C77.6933 19.031 77.1678 19.0665 76.7668 19.1362C76.433 19.1942 75.9413 19.3101 75.6742 19.3937C75.4071 19.4773 74.945 19.6736 74.6471 19.8299C74.2819 20.0216 73.9514 20.2598 73.6313 20.5621C73.3619 20.8166 73.0402 21.199 72.8868 21.4473C72.7382 21.6877 72.5483 22.0904 72.4646 22.3422C72.381 22.5941 72.2837 22.9787 72.2486 23.1969C72.2134 23.4151 72.1845 23.8317 72.1842 24.1225C72.1839 24.4133 72.2222 24.8528 72.2693 25.0992C72.3163 25.3456 72.4238 25.7311 72.5082 25.956C72.5925 26.1809 72.7628 26.5242 72.8866 26.7191C73.0104 26.9139 73.209 27.193 73.3279 27.3391C73.4469 27.4853 73.7364 27.7562 73.9713 27.941C74.2062 28.1259 74.5898 28.3741 74.8239 28.4926C75.0578 28.6111 75.3995 28.7606 75.5831 28.8247C75.7668 28.8889 76.0969 28.9798 76.3168 29.0269C76.5366 29.074 76.9601 29.1309 77.2577 29.1533C77.5661 29.1765 78.0859 29.1632 78.4665 29.1223C78.8338 29.0828 79.3528 28.9948 79.6199 28.9267C79.887 28.8586 80.2881 28.7248 80.5113 28.6293C80.7345 28.5338 81.076 28.3536 81.2701 28.2289C81.4642 28.1041 81.8207 27.8095 82.0622 27.5741C82.3037 27.3388 82.6019 26.9993 82.7248 26.8198C82.8478 26.6403 82.9712 26.4934 82.999 26.4934C83.0268 26.4934 83.0507 26.8986 83.0521 27.3939L83.0546 28.2943L83.288 28.5537L83.5214 28.8132L84.9396 28.8124L86.3579 28.8116L87.7693 27.2894C88.5455 26.4522 89.1806 25.7388 89.1806 25.7041C89.1806 25.6629 88.6899 25.6353 87.7693 25.6246L86.3579 25.6082L86.323 21.5181C86.2897 17.6105 86.2823 17.404 86.1581 16.8908C86.0865 16.5952 85.9344 16.1226 85.8199 15.8403C85.7055 15.558 85.4795 15.1267 85.3179 14.8818C85.1562 14.637 84.8576 14.2692 84.6543 14.0646C84.451 13.86 84.1229 13.5822 83.9252 13.4472C83.7274 13.3122 83.3744 13.1058 83.1406 12.9884C82.9069 12.8711 82.5382 12.7165 82.3212 12.6448C82.1041 12.5731 81.6807 12.4569 81.3803 12.3864C80.9348 12.282 80.5875 12.2545 79.4985 12.2374C78.764 12.2258 78.0055 12.2411 77.8131 12.2714ZM98.4632 12.2666C98.3103 12.2946 97.9717 12.3764 97.7108 12.4484C97.4499 12.5204 97.0409 12.6701 96.8017 12.7812C96.5626 12.8923 96.2117 13.0832 96.0218 13.2053C95.832 13.3275 95.4603 13.6352 95.196 13.8892C94.9317 14.1432 94.6128 14.5007 94.4874 14.6838C94.362 14.8668 94.2373 15.0166 94.2101 15.0166C94.183 15.0166 94.1534 14.4603 94.1443 13.7804L94.1279 12.5442H92.3979H90.6678V20.6635V28.7827H92.4282H94.1886L94.2218 23.9295C94.2514 19.5992 94.2663 19.0343 94.3594 18.6873C94.4168 18.4734 94.5357 18.1176 94.6235 17.8968C94.7114 17.6758 94.8793 17.3289 94.9966 17.1258C95.1138 16.9226 95.4064 16.5605 95.6468 16.3211C95.9693 15.9998 96.2174 15.8195 96.5931 15.6332C96.8732 15.4943 97.2936 15.3405 97.5273 15.2913C97.761 15.2421 98.1844 15.2019 98.4682 15.2019C98.752 15.2019 99.1746 15.2424 99.4073 15.292C99.6401 15.3416 100.023 15.4744 100.257 15.5869C100.492 15.6996 100.832 15.9263 101.013 16.0909C101.195 16.2555 101.446 16.551 101.573 16.7476C101.699 16.9441 101.861 17.26 101.932 17.4496C102.003 17.6391 102.105 17.9728 102.158 18.1911C102.241 18.5322 102.26 19.3027 102.289 23.6853L102.323 28.7827H104.053H105.783L105.801 23.4411C105.813 19.806 105.797 17.9435 105.752 17.6111C105.715 17.3425 105.628 16.903 105.557 16.6344C105.487 16.3658 105.343 15.9385 105.238 15.6848C105.132 15.4313 104.914 15.0192 104.753 14.7691C104.592 14.5192 104.267 14.1192 104.029 13.8806C103.792 13.6418 103.404 13.3208 103.168 13.1672C102.932 13.0136 102.577 12.8155 102.379 12.727C102.181 12.6384 101.773 12.4964 101.473 12.4113C101 12.2772 100.78 12.2538 99.834 12.2361C99.233 12.2248 98.6162 12.2386 98.4632 12.2666ZM113.978 12.3314C113.677 12.3934 113.24 12.5108 113.007 12.5923C112.773 12.6739 112.377 12.844 112.126 12.9704C111.876 13.0968 111.48 13.3273 111.247 13.4827C111.013 13.6381 110.561 14.0261 110.242 14.3451C109.91 14.676 109.501 15.1674 109.288 15.4892C109.083 15.7995 108.817 16.2607 108.698 16.5142C108.578 16.7676 108.397 17.2252 108.295 17.531C108.193 17.8368 108.056 18.3508 107.99 18.6732C107.909 19.0651 107.858 19.6235 107.836 20.3582C107.81 21.2018 107.825 21.6141 107.901 22.133C107.955 22.5048 108.069 23.0542 108.155 23.354C108.24 23.6537 108.458 24.2114 108.64 24.5932C108.821 24.9751 109.098 25.4695 109.254 25.6921C109.411 25.9146 109.732 26.2997 109.968 26.548C110.203 26.7963 110.614 27.1631 110.88 27.3632C111.147 27.5633 111.597 27.8444 111.882 27.988C112.167 28.1315 112.659 28.332 112.976 28.4337C113.293 28.5352 113.771 28.6531 114.038 28.6955C114.306 28.7379 114.866 28.772 115.283 28.7713C115.7 28.7706 116.26 28.7358 116.527 28.6939C116.794 28.652 117.231 28.5486 117.499 28.464C117.766 28.3795 118.191 28.2059 118.444 28.0783C118.696 27.9507 119.038 27.7446 119.202 27.6205C119.367 27.4962 119.62 27.2812 119.764 27.1424C119.909 27.0037 120.153 26.7186 120.307 26.5087C120.461 26.2989 120.61 26.1271 120.636 26.1271C120.663 26.1271 120.685 26.5049 120.685 26.9665C120.685 27.4282 120.657 28.1081 120.623 28.4774C120.588 28.8468 120.505 29.3825 120.439 29.6678C120.372 29.9532 120.194 30.4425 120.043 30.755C119.834 31.1889 119.673 31.4203 119.362 31.7345C119.101 31.9987 118.799 32.2274 118.518 32.3737C118.278 32.499 117.868 32.658 117.608 32.7271C117.248 32.8225 116.937 32.8537 116.315 32.857C115.672 32.8603 115.38 32.833 114.962 32.7303C114.669 32.6583 114.259 32.5147 114.052 32.4112C113.844 32.3078 113.531 32.1142 113.355 31.981C113.18 31.8479 112.926 31.5987 112.791 31.4273C112.657 31.256 112.476 30.9946 112.389 30.8465C112.303 30.6984 112.156 30.3795 112.063 30.1378C111.968 29.8925 111.852 29.6899 111.8 29.6791C111.748 29.6685 111.056 29.9399 110.262 30.2822C109.468 30.6246 108.792 30.9286 108.76 30.9578C108.724 30.9912 108.732 31.0962 108.783 31.2399C108.827 31.3657 108.955 31.6716 109.068 31.9194C109.181 32.1673 109.429 32.6069 109.62 32.8962C109.811 33.1855 110.177 33.6337 110.433 33.8923C110.689 34.1509 111.138 34.5189 111.429 34.7102C111.721 34.9014 112.182 35.1528 112.453 35.2689C112.724 35.3849 113.246 35.5567 113.614 35.6506C113.981 35.7444 114.592 35.8554 114.972 35.8972C115.411 35.9455 116.019 35.9599 116.641 35.9365C117.257 35.9134 117.834 35.8543 118.197 35.7769C118.514 35.7093 118.951 35.5958 119.168 35.5247C119.385 35.4536 119.787 35.2901 120.062 35.1613C120.337 35.0325 120.765 34.7857 121.013 34.6129C121.262 34.4402 121.707 34.0466 122.003 33.7384C122.298 33.4302 122.67 32.9805 122.829 32.7391C122.988 32.4977 123.223 32.0716 123.351 31.7923C123.48 31.513 123.656 31.0587 123.742 30.7828C123.829 30.5069 123.954 30.0117 124.021 29.6823C124.088 29.3528 124.172 28.686 124.208 28.2004C124.25 27.6222 124.266 24.769 124.255 19.9309L124.237 12.5442H122.476H120.716L120.699 13.5668C120.69 14.1291 120.67 14.5893 120.654 14.5893C120.639 14.5893 120.346 14.3046 120.003 13.9567C119.597 13.5443 119.228 13.2341 118.942 13.0658C118.701 12.9237 118.304 12.7293 118.06 12.6338C117.815 12.5383 117.338 12.4035 117.001 12.3343C116.528 12.2374 116.173 12.2096 115.455 12.2136C114.806 12.2172 114.359 12.2528 113.978 12.3314ZM132.189 12.2505C132.089 12.2635 131.789 12.3174 131.523 12.3701C131.258 12.4228 130.834 12.5351 130.582 12.6198C130.331 12.7044 129.893 12.8907 129.609 13.0338C129.325 13.1769 128.925 13.4187 128.719 13.5712C128.513 13.7236 128.19 14.0038 128.002 14.1938C127.813 14.3838 127.534 14.7085 127.382 14.9153C127.231 15.1221 126.99 15.5248 126.848 15.8102C126.706 16.0956 126.526 16.5286 126.448 16.7725C126.325 17.1586 126.318 17.2265 126.395 17.2978C126.443 17.3428 127.12 17.5505 127.899 17.7594C128.678 17.9682 129.348 18.1265 129.388 18.1111C129.428 18.0956 129.511 17.9219 129.572 17.725C129.632 17.528 129.777 17.1836 129.893 16.9595C130.014 16.7269 130.264 16.3913 130.477 16.1774C130.734 15.9188 131.001 15.7284 131.337 15.5626C131.605 15.4305 132.002 15.2757 132.219 15.2186C132.495 15.146 132.851 15.1151 133.403 15.116C133.939 15.1169 134.328 15.1509 134.617 15.2221C134.851 15.2797 135.24 15.4254 135.483 15.546C135.737 15.6721 136.059 15.8985 136.242 16.0795C136.416 16.2524 136.647 16.5604 136.755 16.764C136.863 16.9676 136.992 17.3101 137.043 17.5252C137.103 17.7832 137.134 18.2333 137.135 18.8473C137.136 19.6608 137.124 19.7783 137.039 19.7783C136.985 19.7783 136.514 19.6675 135.992 19.5321C135.469 19.3967 134.81 19.2447 134.526 19.1944C134.242 19.1441 133.673 19.0768 133.261 19.0448C132.782 19.0076 132.252 19.0081 131.79 19.0461C131.392 19.0787 130.826 19.1583 130.531 19.223C130.237 19.2876 129.779 19.4247 129.514 19.5277C129.249 19.6307 128.855 19.8184 128.638 19.945C128.421 20.0715 128.007 20.4099 127.719 20.697C127.275 21.1399 127.154 21.3062 126.92 21.7958C126.769 22.1131 126.601 22.5513 126.547 22.7696C126.493 22.9878 126.433 23.4823 126.414 23.8684C126.385 24.4404 126.402 24.6836 126.504 25.1809C126.59 25.5982 126.717 25.9686 126.906 26.3513C127.11 26.7672 127.301 27.0395 127.648 27.41C127.904 27.6843 128.275 28.0182 128.471 28.152C128.667 28.2858 129.024 28.4892 129.264 28.604C129.504 28.7188 129.963 28.8795 130.283 28.9612C130.603 29.0428 131.122 29.1283 131.436 29.1511C131.755 29.1743 132.301 29.1627 132.674 29.1248C133.042 29.0874 133.593 28.9893 133.901 28.9065C134.208 28.8238 134.635 28.676 134.85 28.578C135.065 28.4799 135.411 28.2836 135.619 28.1416C135.827 27.9995 136.157 27.7225 136.352 27.526C136.547 27.3295 136.808 27.0167 136.93 26.831C137.053 26.6454 137.177 26.4934 137.205 26.4934C137.234 26.4934 137.257 26.8975 137.257 27.3915V28.2897L137.513 28.5514L137.768 28.8132L139.197 28.8106L140.626 28.8079L142.007 27.3175C142.767 26.4978 143.388 25.7852 143.388 25.7341C143.388 25.6538 143.194 25.6388 141.977 25.6246L140.566 25.6082L140.53 21.4876C140.5 17.9706 140.481 17.3077 140.396 16.9624C140.342 16.7399 140.238 16.3827 140.166 16.1688C140.094 15.9548 139.943 15.6012 139.83 15.3829C139.718 15.1647 139.48 14.7938 139.302 14.5588C139.124 14.3238 138.789 13.971 138.558 13.7749C138.327 13.5788 137.975 13.3222 137.776 13.2046C137.577 13.087 137.194 12.9003 136.926 12.7895C136.658 12.6787 136.206 12.532 135.922 12.4634C135.638 12.3948 135.192 12.3094 134.931 12.2736C134.67 12.2378 133.987 12.2126 133.414 12.2176C132.84 12.2226 132.289 12.2375 132.189 12.2505ZM166.304 12.2999C166.037 12.3472 165.572 12.4572 165.272 12.5442C164.971 12.6314 164.477 12.8233 164.174 12.9709C163.871 13.1185 163.406 13.4008 163.142 13.5984C162.878 13.7959 162.504 14.1289 162.312 14.3383C162.12 14.5477 161.857 14.8753 161.729 15.0663C161.6 15.2572 161.395 15.6122 161.273 15.8552C161.152 16.0981 160.984 16.5083 160.9 16.7667C160.812 17.037 160.77 17.2594 160.801 17.2903C160.83 17.3197 161.493 17.5204 162.274 17.7361C163.055 17.9518 163.739 18.1286 163.795 18.1291C163.868 18.1298 163.927 18.0276 163.998 17.779C164.054 17.5859 164.199 17.2357 164.321 17.0006C164.455 16.7406 164.697 16.4176 164.937 16.1754C165.207 15.9035 165.477 15.7062 165.788 15.5522C166.038 15.4282 166.434 15.2796 166.668 15.2218C166.959 15.1498 167.341 15.1168 167.882 15.1168C168.509 15.1168 168.768 15.1442 169.145 15.2505C169.405 15.324 169.777 15.4647 169.97 15.5631C170.164 15.6615 170.473 15.8795 170.655 16.0476C170.838 16.2157 171.072 16.5126 171.174 16.7074C171.277 16.9023 171.407 17.2128 171.463 17.3975C171.533 17.6278 171.576 18.0541 171.599 18.7557C171.631 19.7413 171.628 19.7783 171.513 19.7783C171.448 19.7783 170.918 19.6567 170.336 19.508C169.754 19.3594 168.978 19.1916 168.611 19.1352C168.203 19.0727 167.576 19.0325 167.002 19.0323C166.421 19.0321 165.84 19.0692 165.484 19.1292C165.167 19.1826 164.73 19.2781 164.513 19.3412C164.296 19.4044 163.968 19.5202 163.785 19.5987C163.601 19.6771 163.263 19.8526 163.033 19.9887C162.803 20.1248 162.42 20.4304 162.183 20.668C161.945 20.9055 161.659 21.2549 161.547 21.4445C161.435 21.6342 161.279 21.9512 161.199 22.1491C161.12 22.3471 161.013 22.7067 160.963 22.9485C160.91 23.1994 160.871 23.6941 160.872 24.1013C160.873 24.4936 160.912 24.9983 160.959 25.2228C161.006 25.4473 161.112 25.7983 161.194 26.0029C161.277 26.2075 161.435 26.528 161.547 26.7152C161.659 26.9024 161.91 27.2309 162.105 27.4453C162.299 27.6597 162.7 27.9971 162.994 28.1952C163.288 28.3932 163.744 28.6387 164.007 28.7405C164.27 28.8424 164.716 28.9755 165 29.0364C165.361 29.114 165.768 29.1464 166.365 29.145C166.832 29.144 167.419 29.107 167.67 29.0627C167.92 29.0186 168.343 28.9136 168.611 28.8296C168.878 28.7455 169.26 28.5939 169.46 28.4927C169.661 28.3914 169.947 28.2244 170.098 28.1215C170.248 28.0186 170.531 27.7819 170.727 27.5955C170.923 27.4091 171.205 27.0848 171.355 26.875C171.504 26.6651 171.651 26.4934 171.681 26.4934C171.712 26.4934 171.737 26.898 171.737 27.4089V28.3245L171.956 28.5688L172.176 28.8132H173.528H174.88L176.109 27.4854C176.784 26.7552 177.443 26.0536 177.572 25.9265C177.701 25.7994 177.807 25.6831 177.807 25.6682C177.807 25.6533 177.186 25.6337 176.426 25.6247L175.045 25.6082L175.01 21.5792C174.977 17.8106 174.966 17.5145 174.85 17.0006C174.782 16.6985 174.641 16.2315 174.537 15.9629C174.434 15.6943 174.246 15.2959 174.12 15.0777C173.984 14.8418 173.645 14.4333 173.285 14.0704C172.855 13.6384 172.538 13.3807 172.199 13.189C171.936 13.0399 171.485 12.8288 171.197 12.72C170.908 12.6111 170.4 12.4626 170.066 12.3898C169.574 12.2824 169.209 12.2534 168.125 12.2356C167.16 12.2199 166.655 12.2377 166.304 12.2999ZM117.261 15.4436C117.525 15.5106 117.974 15.68 118.257 15.8201C118.676 16.027 118.877 16.1793 119.323 16.6294C119.802 17.1116 119.914 17.2672 120.184 17.8248C120.355 18.1773 120.557 18.713 120.633 19.0152C120.746 19.4674 120.77 19.7319 120.771 20.5108C120.771 21.2833 120.747 21.5557 120.638 21.9943C120.564 22.2899 120.412 22.7328 120.299 22.9785C120.186 23.2244 119.984 23.5869 119.851 23.7843C119.717 23.9816 119.458 24.2852 119.275 24.4587C119.092 24.6323 118.793 24.8706 118.61 24.9882C118.427 25.1059 118.104 25.2732 117.891 25.36C117.679 25.4468 117.286 25.5625 117.018 25.6172C116.654 25.6913 116.353 25.7076 115.831 25.6811C115.403 25.6595 114.956 25.5958 114.682 25.5175C114.436 25.447 114.074 25.3097 113.879 25.2124C113.684 25.115 113.394 24.9457 113.235 24.8361C113.076 24.7264 112.821 24.5079 112.668 24.3505C112.515 24.1931 112.288 23.91 112.163 23.7213C112.039 23.5328 111.859 23.1882 111.763 22.9556C111.668 22.723 111.54 22.3182 111.479 22.056C111.398 21.7058 111.369 21.3359 111.369 20.6635C111.369 20.0121 111.401 19.5982 111.479 19.2298C111.54 18.9449 111.671 18.4997 111.77 18.2403C111.87 17.981 112.082 17.5685 112.241 17.3236C112.4 17.0788 112.71 16.7106 112.929 16.5053C113.148 16.3 113.474 16.048 113.653 15.9453C113.831 15.8427 114.128 15.6988 114.312 15.6258C114.495 15.5526 114.809 15.4565 115.01 15.4122C115.21 15.3678 115.691 15.3294 116.077 15.3267C116.593 15.3231 116.91 15.3545 117.261 15.4436ZM80.5005 21.8182C80.8842 21.9049 81.5806 22.0929 82.048 22.236L82.8978 22.4962L82.917 22.7642C82.9275 22.9116 82.9048 23.2189 82.8665 23.4472C82.8282 23.6754 82.7026 24.06 82.5873 24.3018C82.4429 24.6049 82.2602 24.8575 81.9991 25.1149C81.7535 25.3572 81.4609 25.567 81.1665 25.7121C80.9168 25.8351 80.5382 25.9806 80.3253 26.0352C80.1123 26.0898 79.6889 26.1555 79.3844 26.181C79.0799 26.2066 78.5956 26.2065 78.3081 26.1809C78.0207 26.1552 77.611 26.0762 77.3976 26.0052C77.1842 25.9341 76.8669 25.7786 76.6925 25.6595C76.518 25.5403 76.2916 25.3158 76.1893 25.1605C76.087 25.0052 75.9598 24.7278 75.9068 24.5441C75.8389 24.3095 75.8197 24.0721 75.842 23.7453C75.8611 23.4643 75.9268 23.1562 76.008 22.9662C76.0858 22.7845 76.2642 22.5375 76.4309 22.3806C76.5895 22.2314 76.8272 22.054 76.9591 21.9863C77.0911 21.9186 77.3613 21.8217 77.5596 21.7709C77.7579 21.7202 78.0021 21.6653 78.1023 21.6491C78.2025 21.6328 78.626 21.6287 79.0436 21.64C79.5767 21.6544 80.0106 21.7075 80.5005 21.8182ZM134.617 21.788C134.917 21.8543 135.58 22.0322 136.09 22.1834C136.6 22.3346 137.043 22.475 137.076 22.4955C137.109 22.5159 137.136 22.7038 137.136 22.913C137.136 23.1222 137.094 23.4571 137.043 23.6572C136.992 23.8573 136.881 24.1636 136.798 24.338C136.714 24.5123 136.516 24.7988 136.359 24.9747C136.202 25.1506 135.914 25.3985 135.718 25.5256C135.523 25.6528 135.211 25.814 135.025 25.884C134.839 25.9539 134.494 26.0521 134.257 26.1023C134.015 26.1538 133.509 26.1939 133.094 26.1945C132.644 26.1951 132.204 26.159 131.956 26.1011C131.733 26.0492 131.393 25.9265 131.2 25.8285C131.007 25.7304 130.731 25.5219 130.588 25.3652C130.444 25.2085 130.268 24.9518 130.198 24.7949C130.098 24.5734 130.068 24.3863 130.066 23.96C130.065 23.581 130.098 23.3117 130.175 23.0919C130.237 22.9112 130.404 22.6406 130.559 22.4669C130.733 22.2718 130.969 22.096 131.207 21.9828C131.413 21.8851 131.732 21.7749 131.916 21.7379C132.099 21.7011 132.318 21.6589 132.401 21.6443C132.485 21.6297 132.894 21.6289 133.312 21.6426C133.749 21.6569 134.302 21.7185 134.617 21.788ZM169.035 21.7852C169.369 21.8545 170.08 22.0432 170.614 22.2046L171.585 22.4979L171.604 22.6923C171.614 22.7992 171.583 23.1192 171.534 23.4035C171.48 23.7162 171.365 24.0848 171.242 24.3366C171.121 24.5836 170.903 24.8895 170.705 25.089C170.521 25.2738 170.179 25.5256 169.946 25.6484C169.712 25.7712 169.329 25.9301 169.094 26.0014C168.859 26.0727 168.409 26.1527 168.092 26.1792C167.776 26.2058 167.275 26.2058 166.978 26.1793C166.681 26.1528 166.267 26.074 166.058 26.0041C165.849 25.9342 165.552 25.7931 165.398 25.6906C165.245 25.5882 165.037 25.404 164.936 25.2816C164.836 25.1591 164.699 24.9136 164.633 24.736C164.551 24.5159 164.513 24.2622 164.513 23.9382C164.513 23.677 164.554 23.3278 164.603 23.1622C164.653 22.9966 164.797 22.7238 164.924 22.5559C165.096 22.3273 165.268 22.1924 165.608 22.0183C165.871 21.8832 166.251 21.7497 166.516 21.6992C166.811 21.643 167.229 21.6207 167.7 21.6358C168.104 21.6488 168.699 21.7155 169.035 21.7852Z" fill="black"/>
</g>
<defs>
<linearGradient id="paint0_linear" x1="7.50281" y1="35.6139" x2="32.4971" y2="4.38623" gradientUnits="userSpaceOnUse">
<stop stop-color="#03345A"/>
<stop offset="0.557292" stop-color="#00457A"/>
</linearGradient>
<linearGradient id="paint1_linear" x1="12.7925" y1="28.435" x2="31.0491" y2="5.62531" gradientUnits="userSpaceOnUse">
<stop stop-color="#0A7EA3"/>
<stop offset="1" stop-color="#075886"/>
</linearGradient>
<linearGradient id="paint2_linear" x1="16.8968" y1="23.2357" x2="30.1155" y2="6.72045" gradientUnits="userSpaceOnUse">
<stop stop-color="#10C5C5"/>
<stop offset="1" stop-color="#146F8C"/>
</linearGradient>
<clipPath id="clip0">
<rect width="177.807" height="40" fill="white"/>
</clipPath>
</defs>
</svg>
