<svg width="28" height="28" viewBox="0 0 28 28" fill="none" xmlns="http://www.w3.org/2000/svg">
<path d="M14 28.0001C21.732 28.0001 28 21.7321 28 14.0001C28 6.26804 21.732 0 14 0C6.26801 0 0 6.26804 0 14.0001C0 21.7321 6.26801 28.0001 14 28.0001Z" fill="#139BD0"/>
<path fill-rule="evenodd" clip-rule="evenodd" d="M14.4587 17.3458C13.9196 17.871 13.3851 18.3874 12.8556 18.9079C12.6705 19.0902 12.4623 19.191 12.1966 19.177C12.0153 19.1674 11.9138 19.0877 11.8582 18.9157C11.4525 17.6566 11.0409 16.4007 10.6374 15.1404C10.5982 15.0181 10.5403 14.9587 10.4165 14.9204C9.46073 14.6286 8.50687 14.3299 7.55456 14.0272C7.40802 13.9806 7.26024 13.9196 7.13362 13.8334C6.93793 13.7009 6.90931 13.4847 7.08478 13.3291C7.24687 13.1857 7.44038 13.0606 7.64136 12.981C8.80958 12.518 9.98402 12.0701 11.1566 11.618C14.1324 10.4691 17.1082 9.3211 20.0842 8.17218C20.6502 7.95347 21.0851 8.26147 21.0263 8.87342C20.9886 9.26479 20.8872 9.64994 20.8054 10.0363C20.1592 13.0874 19.5124 16.1387 18.8628 19.1891C18.7085 19.9134 18.1998 20.1025 17.6038 19.663C16.6054 18.9272 15.608 18.1889 14.6102 17.4519C14.5626 17.4174 14.5132 17.3841 14.4587 17.3458ZM12.2178 18.2723C12.229 18.2692 12.2402 18.2661 12.2514 18.2633C12.2576 18.2347 12.2666 18.2067 12.2691 18.1783C12.3332 17.4868 12.401 16.7955 12.4567 16.1026C12.4692 15.9483 12.5221 15.8388 12.6381 15.7349C13.5584 14.912 14.473 14.0839 15.3896 13.2575C16.4041 12.3426 17.419 11.4285 18.4298 10.5098C18.4923 10.4532 18.5184 10.3568 18.5614 10.2784C18.4662 10.2681 18.3641 10.2298 18.2776 10.2522C18.1597 10.2827 18.048 10.3512 17.9429 10.4174C15.7038 11.8277 13.4666 13.2404 11.226 14.6479C11.0994 14.7275 11.0757 14.795 11.1239 14.9341C11.2891 15.4085 11.4394 15.8873 11.5953 16.3652C11.8028 17.0011 12.0103 17.6367 12.2178 18.2723Z" fill="white"/>
</svg>
