<svg width="29" height="29" viewBox="0 0 29 29" fill="none" xmlns="http://www.w3.org/2000/svg">
<path d="M14.2 0.199951C6.4687 0.199951 0.199951 6.4687 0.199951 14.2C0.199951 21.9312 6.4687 28.2 14.2 28.2C21.9312 28.2 28.2 21.9312 28.2 14.2C28.2 6.4687 21.9312 0.199951 14.2 0.199951ZM20.9281 10.7531C20.9375 10.9 20.9375 11.0531 20.9375 11.2031C20.9375 15.7906 17.4437 21.075 11.0593 21.075C9.09058 21.075 7.26558 20.5031 5.72808 19.5187C6.00933 19.55 6.27808 19.5625 6.56558 19.5625C8.19058 19.5625 9.68433 19.0125 10.875 18.0812C9.34995 18.05 8.0687 17.05 7.6312 15.675C8.16558 15.7531 8.64683 15.7531 9.19683 15.6125C8.4116 15.4529 7.70581 15.0265 7.19938 14.4055C6.69294 13.7846 6.4171 13.0075 6.4187 12.2062V12.1625C6.87808 12.4218 7.4187 12.5812 7.98433 12.6031C7.50883 12.2862 7.11888 11.8569 6.84905 11.3532C6.57922 10.8495 6.43784 10.287 6.43745 9.71558C6.43745 9.0687 6.6062 8.47808 6.90933 7.96558C7.7809 9.0385 8.86848 9.91602 10.1014 10.5411C11.3343 11.1662 12.685 11.5248 14.0656 11.5937C13.575 9.23433 15.3375 7.32495 17.4562 7.32495C18.4562 7.32495 19.3562 7.7437 19.9906 8.4187C20.775 8.27183 21.525 7.97808 22.1937 7.58433C21.9343 8.38745 21.3906 9.06558 20.6687 9.4937C21.3687 9.4187 22.0437 9.22495 22.6687 8.95308C22.1968 9.64683 21.6062 10.2625 20.9281 10.7531Z" fill="#4AA0EB"/>
</svg>
